<svg xmlns="http://www.w3.org/2000/svg" id="SvgjsSvg48724" width="4096" height="1416.2863423707795" version="1.1" xmlns:xlink="http://www.w3.org/1999/xlink" xmlns:svgjs="http://svgjs.com/svgjs"><defs id="SvgjsDefs48725"></defs><g id="SvgjsG48726" transform="translate(328, 328) scale(34.4)" opacity="1"><defs id="SvgjsDefs22040"></defs><g id="SvgjsG22041" transform="scale(0.21645021645021645)" opacity="1"><g id="SvgjsG22042" class="Bs6EJ864z" transform="translate(-12.763527986021082, -12.763527986021082) scale(1.2763527986021082)" light-content="false" fill="#11b6bd"><path d="M30 10v33.333h26.667V70H90V10z"></path><path d="M10 50h40v40H10z"></path></g><g id="SvgjsG22043" class="text" transform="translate(299.7799402513951, 43.61394509892341) scale(1)" light-content="false" fill="#303030"><path d="M-124.38 -0.33C-124.38 -0.56 -124.48 -0.67 -124.66 -0.67C-125.59 -0.67 -126.49 -1.17 -127.34 -2.18C-128.2 -3.18 -129.28 -5 -130.58 -7.65L-144.53 -35.1C-144.57 -35.21 -144.73 -35.27 -145.03 -35.27C-145.29 -35.27 -145.46 -35.21 -145.53 -35.1L-157.64 -8.48C-158.61 -6.32 -159.45 -4.7 -160.15 -3.6C-160.86 -2.5 -161.57 -1.74 -162.27 -1.31C-162.98 -0.88 -163.86 -0.67 -164.9 -0.67C-165.05 -0.67 -165.12 -0.56 -165.12 -0.33C-165.12 -0.11 -165.05 0 -164.9 0C-164.12 0 -163.09 -0.04 -161.83 -0.11C-160.41 -0.19 -159.21 -0.22 -158.2 -0.22C-157.16 -0.22 -155.93 -0.19 -154.52 -0.11C-153.25 -0.04 -152.29 0 -151.62 0C-151.43 0 -151.34 -0.11 -151.34 -0.33C-151.34 -0.56 -151.43 -0.67 -151.62 -0.67C-153.22 -0.67 -154.49 -1.04 -155.44 -1.79C-156.39 -2.53 -156.86 -3.57 -156.86 -4.91C-156.86 -5.84 -156.62 -6.85 -156.14 -7.92L-152.17 -16.69L-142.24 -16.69L-136.44 -5.25C-135.69 -3.76 -135.32 -2.7 -135.32 -2.06C-135.32 -1.54 -135.54 -1.18 -135.96 -0.98C-136.39 -0.77 -137.09 -0.67 -138.06 -0.67C-138.21 -0.67 -138.28 -0.56 -138.28 -0.33C-138.28 -0.11 -138.21 0 -138.06 0C-137.31 0 -136.31 -0.04 -135.04 -0.11C-133.7 -0.19 -132.57 -0.22 -131.64 -0.22C-130.93 -0.22 -129.76 -0.19 -128.12 -0.11C-126.56 -0.04 -125.41 0 -124.66 0C-124.48 0 -124.38 -0.11 -124.38 -0.33ZM-151.45 -18.25L-147.49 -27.06L-143.02 -18.25Z M-85.1 -0.33C-85.1 -0.56 -85.14 -0.67 -85.21 -0.67C-86.7 -0.67 -88.23 -1.27 -89.81 -2.48C-91.4 -3.69 -93.2 -5.62 -95.23 -8.26C-97.26 -10.9 -99.76 -14.56 -102.73 -19.25C-101.06 -20.22 -99.7 -21.48 -98.66 -23.05C-97.62 -24.61 -97.1 -26.25 -97.1 -27.96C-97.1 -30.19 -98.04 -31.93 -99.92 -33.17C-101.79 -34.42 -104.44 -35.04 -107.87 -35.04C-108.76 -35.04 -109.53 -35.03 -110.18 -34.99C-110.83 -34.95 -111.36 -34.91 -111.77 -34.88C-113.08 -34.77 -114.27 -34.71 -115.34 -34.71C-116.35 -34.71 -117.71 -34.75 -119.42 -34.82L-122.38 -34.88C-122.45 -34.88 -122.49 -34.77 -122.49 -34.54C-122.49 -34.32 -122.45 -34.21 -122.38 -34.21C-121.22 -34.21 -120.37 -34.1 -119.81 -33.9C-119.25 -33.7 -118.88 -33.33 -118.69 -32.81C-118.51 -32.29 -118.41 -31.47 -118.41 -30.36L-118.41 -4.52C-118.41 -3.4 -118.52 -2.58 -118.72 -2.04C-118.93 -1.5 -119.3 -1.13 -119.84 -0.95C-120.38 -0.76 -121.24 -0.67 -122.43 -0.67C-122.54 -0.67 -122.6 -0.56 -122.6 -0.33C-122.6 -0.11 -122.54 0 -122.43 0C-121.17 0 -120.16 -0.02 -119.42 -0.06L-115.34 -0.11L-111.1 -0.06C-110.4 -0.02 -109.43 0 -108.2 0C-108.13 0 -108.09 -0.11 -108.09 -0.33C-108.09 -0.56 -108.13 -0.67 -108.2 -0.67C-109.39 -0.67 -110.26 -0.76 -110.8 -0.95C-111.34 -1.13 -111.7 -1.49 -111.88 -2.01C-112.07 -2.53 -112.16 -3.37 -112.16 -4.52L-112.16 -17.47C-111.57 -17.43 -110.55 -17.41 -109.09 -17.41C-108.54 -17.41 -108.11 -17.43 -107.81 -17.47C-104.65 -11.96 -101.95 -7.67 -99.72 -4.6C-97.49 -1.53 -95.96 0 -95.14 0L-85.21 0C-85.14 0 -85.1 -0.11 -85.1 -0.33ZM-108.93 -18.86C-110.19 -18.86 -111.27 -18.94 -112.16 -19.08L-112.16 -30.25C-112.16 -31.55 -111.9 -32.48 -111.38 -33.04C-110.86 -33.59 -109.97 -33.87 -108.7 -33.87C-107.03 -33.87 -105.75 -33.3 -104.85 -32.14C-103.96 -30.99 -103.51 -28.89 -103.51 -25.84C-103.51 -24.01 -103.69 -22.6 -104.04 -21.6C-104.4 -20.59 -104.97 -19.88 -105.75 -19.48C-106.53 -19.07 -107.59 -18.86 -108.93 -18.86Z M-87.5 -24.94C-85.56 -30.71 -82.38 -33.59 -77.96 -33.59C-76.92 -33.59 -76.23 -33.37 -75.89 -32.92C-75.56 -32.48 -75.39 -31.62 -75.39 -30.36L-75.39 -4.52C-75.39 -3.4 -75.51 -2.58 -75.75 -2.04C-75.99 -1.5 -76.44 -1.13 -77.09 -0.95C-77.74 -0.76 -78.74 -0.67 -80.08 -0.67C-80.19 -0.67 -80.24 -0.56 -80.24 -0.33C-80.24 -0.11 -80.19 0 -80.08 0C-78.7 0 -77.62 -0.02 -76.84 -0.06L-72.32 -0.11L-67.69 -0.06C-66.91 -0.02 -65.85 0 -64.51 0C-64.4 0 -64.34 -0.11 -64.34 -0.33C-64.34 -0.56 -64.4 -0.67 -64.51 -0.67C-65.88 -0.67 -66.89 -0.76 -67.52 -0.95C-68.15 -1.13 -68.58 -1.49 -68.81 -2.01C-69.03 -2.53 -69.14 -3.37 -69.14 -4.52L-69.14 -30.25C-69.14 -31.55 -68.96 -32.43 -68.61 -32.9C-68.26 -33.36 -67.54 -33.59 -66.46 -33.59C-64.23 -33.59 -62.35 -32.88 -60.83 -31.44C-59.3 -30.01 -58.26 -27.86 -57.7 -25C-57.66 -24.89 -57.55 -24.83 -57.37 -24.83C-57.18 -24.83 -57.09 -24.89 -57.09 -25C-57.09 -26.49 -57.02 -28.46 -56.89 -30.91C-56.76 -33.37 -56.64 -35.16 -56.53 -36.27C-56.53 -36.42 -56.63 -36.5 -56.84 -36.5C-57.04 -36.5 -57.16 -36.42 -57.2 -36.27C-57.38 -35.71 -57.8 -35.34 -58.45 -35.16C-59.1 -34.97 -60.14 -34.88 -61.55 -34.88L-65.35 -34.82C-67.8 -34.75 -70.13 -34.71 -72.32 -34.71C-76.6 -34.71 -80.34 -34.77 -83.54 -34.88C-85.66 -34.88 -86.72 -35.29 -86.72 -36.1C-86.72 -36.29 -86.82 -36.38 -87.02 -36.38C-87.23 -36.38 -87.33 -36.29 -87.33 -36.1C-87.33 -34.91 -87.42 -33.14 -87.61 -30.78C-87.8 -28.41 -87.96 -26.49 -88.11 -25C-88.11 -24.89 -88.02 -24.82 -87.83 -24.8C-87.65 -24.79 -87.54 -24.83 -87.5 -24.94Z M-26.56 -8.98C-26.71 -8.98 -26.79 -8.95 -26.79 -8.87C-27.6 -6.38 -28.89 -4.54 -30.64 -3.35C-32.38 -2.16 -34.71 -1.56 -37.61 -1.56L-39.45 -1.56C-40.35 -1.56 -41 -1.82 -41.41 -2.34C-41.82 -2.86 -42.02 -3.66 -42.02 -4.74L-42.02 -17.35L-37.44 -17.35C-35.25 -17.35 -33.57 -16.92 -32.39 -16.04C-31.22 -15.17 -30.64 -13.97 -30.64 -12.44C-30.64 -12.37 -30.52 -12.33 -30.3 -12.33C-30.08 -12.33 -29.97 -12.37 -29.97 -12.44C-29.97 -13.19 -30 -14.19 -30.08 -15.46L-30.13 -18.14L-30.08 -23.16C-30.08 -23.27 -30.18 -23.33 -30.38 -23.33C-30.59 -23.33 -30.69 -23.27 -30.69 -23.16C-30.69 -21.82 -31.27 -20.78 -32.42 -20.03C-33.57 -19.29 -35.23 -18.92 -37.39 -18.92L-42.02 -18.92L-42.02 -30.3C-42.02 -31.31 -41.76 -32.05 -41.24 -32.53C-40.72 -33.02 -39.9 -33.26 -38.78 -33.26L-37.11 -33.26C-34.8 -33.26 -32.94 -32.74 -31.53 -31.7C-30.11 -30.65 -29.11 -29.05 -28.52 -26.9C-28.48 -26.79 -28.36 -26.75 -28.15 -26.79C-27.95 -26.82 -27.85 -26.88 -27.85 -26.95L-27.96 -34.37C-27.96 -34.71 -28.14 -34.88 -28.52 -34.88L-52.18 -34.88C-52.29 -34.88 -52.34 -34.77 -52.34 -34.54C-52.34 -34.32 -52.29 -34.21 -52.18 -34.21C-51.02 -34.21 -50.17 -34.1 -49.61 -33.9C-49.05 -33.7 -48.68 -33.33 -48.49 -32.81C-48.31 -32.29 -48.21 -31.47 -48.21 -30.36L-48.21 -4.52C-48.21 -3.4 -48.31 -2.58 -48.49 -2.04C-48.68 -1.5 -49.04 -1.13 -49.58 -0.95C-50.12 -0.76 -50.99 -0.67 -52.18 -0.67C-52.29 -0.67 -52.34 -0.56 -52.34 -0.33C-52.34 -0.11 -52.29 0 -52.18 0L-27.51 0C-27.18 0 -26.95 -0.07 -26.84 -0.2C-26.73 -0.33 -26.67 -0.54 -26.67 -0.84C-26.67 -3.22 -26.49 -5.86 -26.12 -8.76C-26.12 -8.8 -26.16 -8.84 -26.26 -8.9C-26.35 -8.96 -26.45 -8.98 -26.56 -8.98Z M-22.1 -33.82L-20.48 -20.37C-20.48 -20.26 -20.35 -20.22 -20.09 -20.26C-19.83 -20.29 -19.66 -20.35 -19.59 -20.42L-16.07 -35.27C-16.03 -35.42 -16.1 -35.54 -16.27 -35.63C-16.43 -35.72 -16.69 -35.77 -17.02 -35.77C-17.99 -35.77 -19.08 -35.56 -20.31 -35.13C-21.54 -34.7 -22.14 -34.26 -22.1 -33.82Z M23.27 -34.54C23.27 -34.77 23.21 -34.88 23.1 -34.88L20.81 -34.82C19.77 -34.75 18.9 -34.71 18.19 -34.71C16.96 -34.71 15.57 -34.75 14.01 -34.82L11.27 -34.88C11.16 -34.88 11.1 -34.77 11.1 -34.54C11.1 -34.32 11.16 -34.21 11.27 -34.21C12.57 -34.21 13.57 -33.87 14.26 -33.2C14.95 -32.53 15.29 -31.62 15.29 -30.47C15.29 -29.72 15.1 -28.83 14.73 -27.79L7.48 -8.65L-2.18 -29.24C-2.59 -30.13 -2.79 -30.9 -2.79 -31.53C-2.79 -32.38 -2.48 -33.04 -1.87 -33.51C-1.26 -33.97 -0.39 -34.21 0.73 -34.21C0.84 -34.21 0.89 -34.32 0.89 -34.54C0.89 -34.77 0.84 -34.88 0.73 -34.88C-0.17 -34.88 -0.91 -34.86 -1.51 -34.82C-3.74 -34.75 -6.45 -34.71 -9.65 -34.71C-10.84 -34.71 -11.81 -34.75 -12.56 -34.82C-12.78 -34.86 -13.17 -34.88 -13.73 -34.88C-13.84 -34.88 -13.89 -34.77 -13.89 -34.54C-13.89 -34.32 -13.84 -34.21 -13.73 -34.21C-12.91 -34.21 -12.17 -33.88 -11.5 -33.23C-10.83 -32.58 -10.16 -31.58 -9.49 -30.25L4.74 -0.06C4.78 0.09 4.98 0.17 5.36 0.17C5.73 0.17 5.93 0.09 5.97 -0.06L16.29 -27.62C17.04 -29.63 18.02 -31.23 19.25 -32.42C20.48 -33.61 21.76 -34.21 23.1 -34.21C23.21 -34.21 23.27 -34.32 23.27 -34.54Z M50.72 -8.98C50.58 -8.98 50.5 -8.95 50.5 -8.87C49.68 -6.38 48.4 -4.54 46.65 -3.35C44.9 -2.16 42.58 -1.56 39.68 -1.56L37.83 -1.56C36.94 -1.56 36.29 -1.82 35.88 -2.34C35.47 -2.86 35.27 -3.66 35.27 -4.74L35.27 -17.35L39.84 -17.35C42.04 -17.35 43.72 -16.92 44.89 -16.04C46.07 -15.17 46.65 -13.97 46.65 -12.44C46.65 -12.37 46.76 -12.33 46.99 -12.33C47.21 -12.33 47.32 -12.37 47.32 -12.44C47.32 -13.19 47.28 -14.19 47.21 -15.46L47.15 -18.14L47.21 -23.16C47.21 -23.27 47.11 -23.33 46.9 -23.33C46.7 -23.33 46.6 -23.27 46.6 -23.16C46.6 -21.82 46.02 -20.78 44.87 -20.03C43.71 -19.29 42.06 -18.92 39.9 -18.92L35.27 -18.92L35.27 -30.3C35.27 -31.31 35.53 -32.05 36.05 -32.53C36.57 -33.02 37.39 -33.26 38.5 -33.26L40.18 -33.26C42.48 -33.26 44.34 -32.74 45.76 -31.7C47.17 -30.65 48.18 -29.05 48.77 -26.9C48.81 -26.79 48.93 -26.75 49.13 -26.79C49.34 -26.82 49.44 -26.88 49.44 -26.95L49.33 -34.37C49.33 -34.71 49.14 -34.88 48.77 -34.88L25.11 -34.88C25 -34.88 24.94 -34.77 24.94 -34.54C24.94 -34.32 25 -34.21 25.11 -34.21C26.26 -34.21 27.12 -34.1 27.68 -33.9C28.24 -33.7 28.61 -33.33 28.79 -32.81C28.98 -32.29 29.07 -31.47 29.07 -30.36L29.07 -4.52C29.07 -3.4 28.98 -2.58 28.79 -2.04C28.61 -1.5 28.25 -1.13 27.71 -0.95C27.17 -0.76 26.3 -0.67 25.11 -0.67C25 -0.67 24.94 -0.56 24.94 -0.33C24.94 -0.11 25 0 25.11 0L49.78 0C50.11 0 50.33 -0.07 50.45 -0.2C50.56 -0.33 50.61 -0.54 50.61 -0.84C50.61 -3.22 50.8 -5.86 51.17 -8.76C51.17 -8.8 51.12 -8.84 51.03 -8.9C50.94 -8.96 50.84 -8.98 50.72 -8.98Z M94.08 -34.54C94.08 -34.77 94.05 -34.88 93.97 -34.88L91.46 -34.82C90.12 -34.75 89.08 -34.71 88.34 -34.71C87.52 -34.71 86.51 -34.75 85.32 -34.82L82.92 -34.88C82.85 -34.88 82.81 -34.77 82.81 -34.54C82.81 -34.32 82.85 -34.21 82.92 -34.21C84.37 -34.21 85.51 -33.63 86.33 -32.48C87.15 -31.32 87.55 -29.74 87.55 -27.73L87.55 -9.71L68.25 -31.98C67.99 -32.27 67.54 -32.85 66.91 -33.7C66.54 -34.19 66.28 -34.5 66.13 -34.65C65.98 -34.8 65.75 -34.88 65.46 -34.88C64.71 -34.88 64.08 -34.86 63.56 -34.82L59.32 -34.77C58.39 -34.77 57.68 -34.78 57.2 -34.82L54.85 -34.88C54.78 -34.88 54.74 -34.77 54.74 -34.54C54.74 -34.32 54.78 -34.21 54.85 -34.21C55.78 -34.21 56.69 -33.96 57.56 -33.45C58.43 -32.95 59.49 -32.03 60.71 -30.69L60.71 -7.09C60.71 -5.12 60.24 -3.55 59.29 -2.4C58.34 -1.25 57.05 -0.67 55.41 -0.67C55.3 -0.67 55.24 -0.56 55.24 -0.33C55.24 -0.11 55.3 0 55.41 0C56.6 0 57.51 -0.02 58.15 -0.06L61.61 -0.11L64.62 -0.06C65.18 -0.02 65.98 0 67.02 0C67.09 0 67.13 -0.11 67.13 -0.33C67.13 -0.56 67.09 -0.67 67.02 -0.67C65.57 -0.67 64.43 -1.25 63.62 -2.4C62.8 -3.55 62.39 -5.12 62.39 -7.09L62.39 -28.79L88.56 1C88.63 1.08 88.75 1.1 88.92 1.06C89.09 1.02 89.17 0.95 89.17 0.84L89.17 -27.73C89.17 -29.71 89.6 -31.28 90.46 -32.45C91.31 -33.62 92.48 -34.21 93.97 -34.21C94.05 -34.21 94.08 -34.32 94.08 -34.54Z M125.14 -32.48C126.05 -31.32 126.51 -29.74 126.51 -27.73L126.51 -12.17C126.51 -8.67 125.63 -5.98 123.88 -4.1C122.13 -2.22 119.72 -1.28 116.63 -1.28C113.43 -1.28 110.95 -2.34 109.21 -4.46C107.46 -6.58 106.58 -9.86 106.58 -14.29L106.58 -30.25C106.58 -31.36 106.69 -32.19 106.89 -32.73C107.1 -33.27 107.47 -33.65 108.01 -33.87C108.55 -34.1 109.39 -34.21 110.55 -34.21C110.66 -34.21 110.71 -34.32 110.71 -34.54C110.71 -34.77 110.66 -34.88 110.55 -34.88L107.7 -34.82C105.99 -34.75 104.57 -34.71 103.46 -34.71C102.45 -34.71 101.1 -34.75 99.39 -34.82L96.43 -34.88C96.32 -34.88 96.26 -34.77 96.26 -34.54C96.26 -34.32 96.32 -34.21 96.43 -34.21C97.58 -34.21 98.43 -34.1 98.97 -33.9C99.51 -33.7 99.88 -33.33 100.08 -32.81C100.29 -32.29 100.39 -31.47 100.39 -30.36L100.39 -12.33C100.39 -9.65 100.99 -7.32 102.2 -5.33C103.41 -3.34 105.08 -1.82 107.2 -0.78C109.32 0.26 111.75 0.78 114.51 0.78C117.26 0.78 119.69 0.25 121.79 -0.81C123.89 -1.87 125.52 -3.39 126.67 -5.36C127.83 -7.33 128.4 -9.62 128.4 -12.22L128.4 -27.73C128.4 -29.74 128.81 -31.32 129.63 -32.48C130.45 -33.63 131.58 -34.21 133.03 -34.21C133.11 -34.21 133.15 -34.32 133.15 -34.54C133.15 -34.77 133.11 -34.88 133.03 -34.88L130.47 -34.82C129.13 -34.75 128.1 -34.71 127.4 -34.71C126.54 -34.71 125.41 -34.75 123.99 -34.82L121.32 -34.88C121.24 -34.88 121.2 -34.77 121.2 -34.54C121.2 -34.32 121.24 -34.21 121.32 -34.21C122.95 -34.21 124.23 -33.63 125.14 -32.48Z M161.77 -8.98C161.62 -8.98 161.55 -8.95 161.55 -8.87C160.73 -6.38 159.45 -4.54 157.7 -3.35C155.95 -2.16 153.63 -1.56 150.72 -1.56L148.88 -1.56C147.99 -1.56 147.34 -1.82 146.93 -2.34C146.52 -2.86 146.32 -3.66 146.32 -4.74L146.32 -17.35L150.89 -17.35C153.09 -17.35 154.77 -16.92 155.94 -16.04C157.11 -15.17 157.7 -13.97 157.7 -12.44C157.7 -12.37 157.81 -12.33 158.03 -12.33C158.26 -12.33 158.37 -12.37 158.37 -12.44C158.37 -13.19 158.33 -14.19 158.26 -15.46L158.2 -18.14L158.26 -23.16C158.26 -23.27 158.15 -23.33 157.95 -23.33C157.75 -23.33 157.64 -23.27 157.64 -23.16C157.64 -21.82 157.07 -20.78 155.91 -20.03C154.76 -19.29 153.1 -18.92 150.95 -18.92L146.32 -18.92L146.32 -30.3C146.32 -31.31 146.58 -32.05 147.1 -32.53C147.62 -33.02 148.44 -33.26 149.55 -33.26L151.23 -33.26C153.53 -33.26 155.39 -32.74 156.81 -31.7C158.22 -30.65 159.22 -29.05 159.82 -26.9C159.86 -26.79 159.98 -26.75 160.18 -26.79C160.39 -26.82 160.49 -26.88 160.49 -26.95L160.38 -34.37C160.38 -34.71 160.19 -34.88 159.82 -34.88L136.16 -34.88C136.05 -34.88 135.99 -34.77 135.99 -34.54C135.99 -34.32 136.05 -34.21 136.16 -34.21C137.31 -34.21 138.17 -34.1 138.73 -33.9C139.28 -33.7 139.66 -33.33 139.84 -32.81C140.03 -32.29 140.12 -31.47 140.12 -30.36L140.12 -4.52C140.12 -3.4 140.03 -2.58 139.84 -2.04C139.66 -1.5 139.29 -1.13 138.75 -0.95C138.21 -0.76 137.35 -0.67 136.16 -0.67C136.05 -0.67 135.99 -0.56 135.99 -0.33C135.99 -0.11 136.05 0 136.16 0L160.82 0C161.16 0 161.38 -0.07 161.49 -0.2C161.61 -0.33 161.66 -0.54 161.66 -0.84C161.66 -3.22 161.85 -5.86 162.22 -8.76C162.22 -8.8 162.17 -8.84 162.08 -8.9C161.99 -8.96 161.88 -8.98 161.77 -8.98Z"></path></g></g></g></svg>